<svg xmlns="http://www.w3.org/2000/svg" xmlns:xlink="http://www.w3.org/1999/xlink" width="150" zoomAndPan="magnify" viewBox="0 0 112.5 30.000001" height="40" preserveAspectRatio="xMidYMid meet" version="1.0"><defs><g/><clipPath id="c68462da79"><path d="M 93.285156 2.902344 L 110 2.902344 L 110 20.324219 L 93.285156 20.324219 Z M 93.285156 2.902344 " clip-rule="nonzero"/></clipPath></defs><g clip-path="url(#c68462da79)"><path fill="#ffffff" d="M 108.878906 11.644531 C 107.820312 11.160156 106.828125 11.734375 106.316406 12.136719 C 106.339844 11.878906 106.355469 11.613281 106.359375 11.351562 C 106.363281 11.335938 106.363281 11.324219 106.363281 11.3125 C 106.363281 11.304688 106.363281 11.296875 106.363281 11.289062 C 106.363281 11.261719 106.363281 11.234375 106.363281 11.203125 L 106.355469 11.203125 C 106.179688 10.09375 103.308594 9.207031 99.789062 9.207031 C 99.351562 9.207031 98.925781 9.222656 98.511719 9.25 C 98.597656 9.246094 98.683594 9.246094 98.765625 9.246094 C 102.066406 9.246094 104.738281 10.007812 104.738281 10.945312 C 104.738281 11.882812 102.066406 12.640625 98.765625 12.640625 C 96.3125 12.640625 94.203125 12.21875 93.285156 11.617188 C 93.75 12.632812 96.484375 13.414062 99.789062 13.414062 C 101.757812 13.414062 103.523438 13.136719 104.730469 12.699219 C 103.84375 15.910156 101.582031 18.191406 98.929688 18.191406 C 96.605469 18.191406 94.582031 16.445312 93.519531 13.855469 C 94.421875 16.972656 96.875 19.210938 99.757812 19.210938 C 100.898438 19.210938 101.972656 18.859375 102.910156 18.242188 C 103.578125 18.433594 103.96875 18.667969 103.96875 18.921875 C 103.96875 19.574219 101.375 20.101562 98.179688 20.101562 C 96.230469 20.101562 94.507812 19.90625 93.460938 19.605469 C 94.277344 20.132812 96.695312 20.515625 99.550781 20.515625 C 103.078125 20.515625 105.9375 19.929688 105.9375 19.210938 C 105.9375 18.757812 104.800781 18.359375 103.078125 18.125 C 103.996094 17.476562 104.769531 16.570312 105.339844 15.488281 C 105.726562 16.074219 106.605469 17.15625 107.539062 16.660156 C 108.800781 15.996094 110.441406 12.363281 108.878906 11.644531 Z M 107.523438 15.460938 C 106.648438 16.273438 105.777344 14.507812 105.777344 14.503906 C 105.960938 14.015625 106.101562 13.503906 106.199219 12.96875 C 106.6875 12.636719 107.410156 12.308594 108.066406 12.640625 C 108.738281 12.980469 108.398438 14.648438 107.523438 15.460938 Z M 103.765625 11.207031 C 103.765625 11.808594 101.765625 12.300781 99.300781 12.300781 C 97.125 12.300781 95.3125 11.917969 94.917969 11.410156 C 95.316406 11.601562 96.027344 11.726562 96.832031 11.726562 C 98.078125 11.726562 99.089844 11.425781 99.089844 11.054688 C 99.089844 10.6875 98.078125 10.386719 96.832031 10.386719 C 96.628906 10.386719 96.429688 10.394531 96.238281 10.410156 C 97.039062 10.222656 98.117188 10.109375 99.300781 10.109375 C 101.765625 10.109375 103.765625 10.601562 103.765625 11.207031 Z M 101.316406 5.632812 C 101.226562 5.441406 101.164062 5.199219 101.179688 4.976562 C 101.191406 4.75 101.265625 4.527344 101.410156 4.34375 C 101.484375 4.253906 101.574219 4.175781 101.675781 4.117188 C 101.777344 4.0625 101.890625 4.03125 102 4.019531 C 101.660156 4.289062 101.621094 4.640625 101.683594 4.953125 C 101.742188 5.261719 101.957031 5.539062 102.179688 5.863281 C 102.289062 6.023438 102.402344 6.195312 102.5 6.382812 C 102.597656 6.566406 102.679688 6.789062 102.695312 7.011719 C 102.710938 7.230469 102.675781 7.460938 102.5625 7.660156 C 102.503906 7.757812 102.433594 7.847656 102.34375 7.921875 C 102.25 7.992188 102.148438 8.042969 102.039062 8.070312 C 102.320312 7.75 102.292969 7.398438 102.191406 7.085938 C 102.089844 6.78125 101.855469 6.503906 101.628906 6.171875 C 101.515625 6.007812 101.402344 5.828125 101.3125 5.632812 Z M 95.449219 5.632812 C 95.359375 5.441406 95.296875 5.199219 95.3125 4.976562 C 95.324219 4.75 95.398438 4.527344 95.542969 4.34375 C 95.621094 4.253906 95.707031 4.175781 95.8125 4.117188 C 95.914062 4.0625 96.027344 4.03125 96.136719 4.019531 C 95.796875 4.289062 95.757812 4.640625 95.820312 4.953125 C 95.878906 5.261719 96.09375 5.539062 96.3125 5.863281 C 96.421875 6.023438 96.539062 6.195312 96.636719 6.382812 C 96.730469 6.566406 96.816406 6.789062 96.828125 7.011719 C 96.84375 7.230469 96.808594 7.460938 96.699219 7.660156 C 96.640625 7.757812 96.566406 7.847656 96.476562 7.921875 C 96.386719 7.992188 96.28125 8.042969 96.175781 8.070312 C 96.457031 7.75 96.429688 7.398438 96.328125 7.085938 C 96.226562 6.78125 95.992188 6.503906 95.765625 6.171875 C 95.652344 6.007812 95.539062 5.828125 95.449219 5.632812 Z M 98.292969 4.515625 C 98.203125 4.324219 98.140625 4.085938 98.15625 3.859375 C 98.167969 3.636719 98.242188 3.410156 98.386719 3.226562 C 98.464844 3.140625 98.550781 3.058594 98.652344 3.003906 C 98.753906 2.945312 98.867188 2.914062 98.976562 2.902344 C 98.636719 3.171875 98.601562 3.527344 98.660156 3.839844 C 98.71875 4.144531 98.933594 4.425781 99.15625 4.746094 C 99.265625 4.90625 99.378906 5.078125 99.476562 5.265625 C 99.574219 5.453125 99.65625 5.675781 99.671875 5.894531 C 99.6875 6.117188 99.652344 6.34375 99.539062 6.542969 C 99.480469 6.644531 99.410156 6.734375 99.320312 6.804688 C 99.226562 6.875 99.125 6.925781 99.015625 6.953125 C 99.300781 6.632812 99.269531 6.28125 99.167969 5.972656 C 99.066406 5.664062 98.832031 5.386719 98.605469 5.054688 C 98.492188 4.890625 98.378906 4.714844 98.292969 4.515625 Z M 98.292969 4.515625 " fill-opacity="1" fill-rule="nonzero"/></g><g fill="#ffffff" fill-opacity="1"><g transform="translate(3.416038, 19.622434)"><g><path d="M 2.4375 3.234375 C 2.226562 3.234375 2.0625 3.160156 1.9375 3.015625 C 1.8125 2.878906 1.75 2.707031 1.75 2.5 C 1.75 2.28125 1.816406 2.039062 1.953125 1.78125 C 2.097656 1.519531 2.28125 1.265625 2.5 1.015625 C 2.125 0.785156 1.820312 0.503906 1.59375 0.171875 C 1.363281 -0.148438 1.25 -0.523438 1.25 -0.953125 C 1.25 -1.554688 1.484375 -2.054688 1.953125 -2.453125 C 2.421875 -2.847656 3.054688 -3.085938 3.859375 -3.171875 L 3.859375 -3.984375 C 3.285156 -4.023438 2.84375 -4.113281 2.53125 -4.25 C 2.21875 -4.382812 2.0625 -4.539062 2.0625 -4.71875 C 2.0625 -4.882812 2.21875 -5.039062 2.53125 -5.1875 C 2.84375 -5.34375 3.28125 -5.453125 3.84375 -5.515625 C 3.832031 -6.046875 3.785156 -6.414062 3.703125 -6.625 C 3.628906 -6.832031 3.492188 -6.972656 3.296875 -7.046875 L 3.296875 -7.078125 C 3.460938 -7.097656 3.671875 -7.148438 3.921875 -7.234375 C 4.171875 -7.328125 4.414062 -7.4375 4.65625 -7.5625 C 4.894531 -7.695312 5.070312 -7.828125 5.1875 -7.953125 L 5.21875 -7.9375 C 5.113281 -7.769531 5.0625 -7.289062 5.0625 -6.5 L 5.0625 -5.53125 C 5.382812 -5.519531 5.691406 -5.484375 5.984375 -5.421875 C 6.273438 -5.367188 6.550781 -5.300781 6.8125 -5.21875 C 7.101562 -5.5625 7.25 -5.96875 7.25 -6.4375 C 7.25 -6.875 7.113281 -7.242188 6.84375 -7.546875 C 6.582031 -7.847656 6.238281 -8.078125 5.8125 -8.234375 C 5.382812 -8.398438 4.9375 -8.484375 4.46875 -8.484375 C 3.976562 -8.484375 3.519531 -8.398438 3.09375 -8.234375 C 2.664062 -8.078125 2.320312 -7.863281 2.0625 -7.59375 C 1.8125 -7.332031 1.6875 -7.046875 1.6875 -6.734375 C 1.6875 -6.378906 1.820312 -6.203125 2.09375 -6.203125 C 2.289062 -6.203125 2.441406 -6.304688 2.546875 -6.515625 C 2.523438 -6.085938 2.382812 -5.753906 2.125 -5.515625 C 1.875 -5.273438 1.585938 -5.15625 1.265625 -5.15625 C 0.953125 -5.15625 0.691406 -5.269531 0.484375 -5.5 C 0.285156 -5.726562 0.1875 -6.023438 0.1875 -6.390625 C 0.1875 -6.898438 0.378906 -7.351562 0.765625 -7.75 C 1.160156 -8.15625 1.691406 -8.476562 2.359375 -8.71875 C 3.035156 -8.957031 3.800781 -9.078125 4.65625 -9.078125 C 5.457031 -9.078125 6.160156 -8.96875 6.765625 -8.75 C 7.367188 -8.53125 7.835938 -8.222656 8.171875 -7.828125 C 8.503906 -7.441406 8.671875 -6.984375 8.671875 -6.453125 C 8.671875 -5.796875 8.382812 -5.242188 7.8125 -4.796875 C 8.457031 -4.429688 8.941406 -3.972656 9.265625 -3.421875 C 9.585938 -2.878906 9.75 -2.320312 9.75 -1.75 C 9.75 -1.164062 9.617188 -0.65625 9.359375 -0.21875 C 9.109375 0.207031 8.769531 0.5625 8.34375 0.84375 C 7.914062 1.132812 7.4375 1.347656 6.90625 1.484375 C 6.382812 1.628906 5.847656 1.703125 5.296875 1.703125 C 4.378906 1.703125 3.550781 1.523438 2.8125 1.171875 C 2.644531 1.398438 2.5625 1.613281 2.5625 1.8125 C 2.5625 1.925781 2.59375 2.007812 2.65625 2.0625 C 2.71875 2.125 2.78125 2.15625 2.84375 2.15625 C 2.90625 2.15625 2.960938 2.125 3.015625 2.0625 C 3.078125 2.007812 3.109375 1.929688 3.109375 1.828125 C 3.148438 1.898438 3.175781 1.972656 3.1875 2.046875 C 3.195312 2.128906 3.203125 2.207031 3.203125 2.28125 C 3.203125 2.519531 3.132812 2.738281 3 2.9375 C 2.875 3.132812 2.6875 3.234375 2.4375 3.234375 Z M 2.671875 -0.96875 C 2.671875 -0.488281 2.851562 -0.0546875 3.21875 0.328125 C 3.289062 0.253906 3.363281 0.1875 3.4375 0.125 C 3.507812 0.0703125 3.585938 0.0195312 3.671875 -0.03125 C 3.753906 -0.238281 3.804688 -0.46875 3.828125 -0.71875 C 3.847656 -0.976562 3.859375 -1.191406 3.859375 -1.359375 L 3.859375 -2.5625 C 3.441406 -2.445312 3.140625 -2.242188 2.953125 -1.953125 C 2.765625 -1.660156 2.671875 -1.332031 2.671875 -0.96875 Z M 3.203125 -4.765625 C 3.203125 -4.617188 3.421875 -4.507812 3.859375 -4.4375 L 3.859375 -5.046875 C 3.421875 -4.992188 3.203125 -4.898438 3.203125 -4.765625 Z M 3.4375 0.53125 C 3.65625 0.6875 3.914062 0.8125 4.21875 0.90625 C 4.519531 1.007812 4.867188 1.0625 5.265625 1.0625 C 5.628906 1.0625 5.988281 1.003906 6.34375 0.890625 C 6.707031 0.785156 7.035156 0.625 7.328125 0.40625 C 7.617188 0.1875 7.851562 -0.09375 8.03125 -0.4375 C 8.207031 -0.78125 8.296875 -1.1875 8.296875 -1.65625 C 8.296875 -2.195312 8.171875 -2.695312 7.921875 -3.15625 C 7.679688 -3.625 7.359375 -4.019531 6.953125 -4.34375 C 6.703125 -4.238281 6.414062 -4.148438 6.09375 -4.078125 C 5.769531 -4.015625 5.425781 -3.976562 5.0625 -3.96875 L 5.0625 -3.15625 C 5.789062 -3.070312 6.378906 -2.863281 6.828125 -2.53125 C 7.285156 -2.207031 7.515625 -1.800781 7.515625 -1.3125 C 7.515625 -0.988281 7.421875 -0.75 7.234375 -0.59375 C 7.054688 -0.445312 6.859375 -0.375 6.640625 -0.375 C 6.429688 -0.375 6.234375 -0.441406 6.046875 -0.578125 C 5.859375 -0.722656 5.765625 -0.929688 5.765625 -1.203125 C 5.835938 -1.148438 5.898438 -1.125 5.953125 -1.125 C 6.046875 -1.125 6.117188 -1.160156 6.171875 -1.234375 C 6.234375 -1.304688 6.265625 -1.398438 6.265625 -1.515625 C 6.265625 -1.753906 6.148438 -1.96875 5.921875 -2.15625 C 5.703125 -2.34375 5.414062 -2.476562 5.0625 -2.5625 C 5.070312 -2.050781 5.09375 -1.664062 5.125 -1.40625 C 5.164062 -1.144531 5.222656 -0.960938 5.296875 -0.859375 C 5.378906 -0.753906 5.484375 -0.675781 5.609375 -0.625 L 5.609375 -0.59375 C 5.265625 -0.53125 4.894531 -0.394531 4.5 -0.1875 C 4.113281 0.0195312 3.757812 0.257812 3.4375 0.53125 Z M 5.0625 -4.40625 C 5.289062 -4.4375 5.503906 -4.484375 5.703125 -4.546875 C 5.910156 -4.609375 6.09375 -4.679688 6.25 -4.765625 C 6.0625 -4.847656 5.867188 -4.914062 5.671875 -4.96875 C 5.484375 -5.03125 5.28125 -5.070312 5.0625 -5.09375 Z M 5.0625 -4.40625 "/></g></g></g><g fill="#ffffff" fill-opacity="1"><g transform="translate(13.415051, 19.622434)"><g><path d="M 0.171875 -0.03125 C 0.367188 -0.101562 0.503906 -0.242188 0.578125 -0.453125 C 0.660156 -0.660156 0.703125 -1 0.703125 -1.46875 L 0.703125 -5.640625 C 0.703125 -6.097656 0.660156 -6.429688 0.578125 -6.640625 C 0.503906 -6.859375 0.367188 -7 0.171875 -7.0625 L 0.171875 -7.109375 L 4.0625 -7.109375 C 4.15625 -7.109375 4.253906 -7.113281 4.359375 -7.125 C 4.472656 -7.144531 4.546875 -7.171875 4.578125 -7.203125 L 3.921875 -5.859375 L 3.875 -5.875 C 3.914062 -6.21875 3.675781 -6.390625 3.15625 -6.390625 L 1.828125 -6.390625 L 1.828125 -4.53125 L 1.859375 -4.53125 C 1.953125 -4.695312 2.070312 -4.828125 2.21875 -4.921875 C 2.363281 -5.023438 2.53125 -5.078125 2.71875 -5.078125 C 2.945312 -5.078125 3.160156 -5.023438 3.359375 -4.921875 C 3.554688 -4.828125 3.757812 -4.78125 3.96875 -4.78125 C 4.175781 -4.78125 4.328125 -4.859375 4.421875 -5.015625 L 4.46875 -5 C 4.40625 -4.769531 4.28125 -4.539062 4.09375 -4.3125 C 3.90625 -4.09375 3.679688 -3.984375 3.421875 -3.984375 C 3.273438 -3.984375 3.132812 -4.015625 3 -4.078125 C 2.875 -4.140625 2.738281 -4.195312 2.59375 -4.25 C 2.457031 -4.3125 2.316406 -4.34375 2.171875 -4.34375 C 2.035156 -4.34375 1.921875 -4.296875 1.828125 -4.203125 L 1.828125 -0.75 L 3.09375 -0.75 C 3.4375 -0.75 3.75 -0.832031 4.03125 -1 C 4.3125 -1.175781 4.507812 -1.410156 4.625 -1.703125 L 4.671875 -1.703125 L 4.34375 0.140625 C 4.28125 0.046875 4.160156 0 3.984375 0 L 0.171875 0 Z M 0.171875 -0.03125 "/></g></g></g><g fill="#ffffff" fill-opacity="1"><g transform="translate(18.24001, 19.622434)"><g><path d="M 0.171875 -0.03125 C 0.367188 -0.101562 0.503906 -0.242188 0.578125 -0.453125 C 0.660156 -0.660156 0.703125 -1 0.703125 -1.46875 L 0.703125 -5.640625 C 0.703125 -6.097656 0.660156 -6.429688 0.578125 -6.640625 C 0.503906 -6.859375 0.367188 -7 0.171875 -7.0625 L 0.171875 -7.109375 L 2.375 -7.109375 L 2.375 -7.0625 C 2.164062 -7 2.019531 -6.859375 1.9375 -6.640625 C 1.863281 -6.429688 1.828125 -6.097656 1.828125 -5.640625 L 1.828125 -0.75 L 2.71875 -0.75 C 3.0625 -0.75 3.375 -0.832031 3.65625 -1 C 3.9375 -1.175781 4.132812 -1.410156 4.25 -1.703125 L 4.296875 -1.703125 L 3.96875 0.140625 C 3.90625 0.046875 3.785156 0 3.609375 0 L 0.171875 0 Z M 0.171875 -0.03125 "/></g></g></g><g fill="#ffffff" fill-opacity="1"><g transform="translate(22.5912, 19.622434)"><g><path d="M 0.171875 -0.03125 C 0.367188 -0.101562 0.503906 -0.242188 0.578125 -0.453125 C 0.660156 -0.660156 0.703125 -1 0.703125 -1.46875 L 0.703125 -5.640625 C 0.703125 -6.097656 0.660156 -6.429688 0.578125 -6.640625 C 0.503906 -6.859375 0.367188 -7 0.171875 -7.0625 L 0.171875 -7.109375 L 2.375 -7.109375 L 2.375 -7.0625 C 2.164062 -7 2.019531 -6.859375 1.9375 -6.640625 C 1.863281 -6.429688 1.828125 -6.097656 1.828125 -5.640625 L 1.828125 -0.75 L 2.71875 -0.75 C 3.0625 -0.75 3.375 -0.832031 3.65625 -1 C 3.9375 -1.175781 4.132812 -1.410156 4.25 -1.703125 L 4.296875 -1.703125 L 3.96875 0.140625 C 3.90625 0.046875 3.785156 0 3.609375 0 L 0.171875 0 Z M 0.171875 -0.03125 "/></g></g></g><g fill="#ffffff" fill-opacity="1"><g transform="translate(26.942389, 19.622434)"><g><path d="M 0.171875 -0.03125 C 0.367188 -0.101562 0.503906 -0.242188 0.578125 -0.453125 C 0.660156 -0.660156 0.703125 -1 0.703125 -1.46875 L 0.703125 -5.640625 C 0.703125 -6.097656 0.660156 -6.429688 0.578125 -6.640625 C 0.503906 -6.859375 0.367188 -7 0.171875 -7.0625 L 0.171875 -7.109375 L 4.0625 -7.109375 C 4.15625 -7.109375 4.253906 -7.113281 4.359375 -7.125 C 4.472656 -7.144531 4.546875 -7.171875 4.578125 -7.203125 L 3.921875 -5.859375 L 3.875 -5.875 C 3.914062 -6.21875 3.675781 -6.390625 3.15625 -6.390625 L 1.828125 -6.390625 L 1.828125 -4.53125 L 1.859375 -4.53125 C 1.953125 -4.695312 2.070312 -4.828125 2.21875 -4.921875 C 2.363281 -5.023438 2.53125 -5.078125 2.71875 -5.078125 C 2.945312 -5.078125 3.160156 -5.023438 3.359375 -4.921875 C 3.554688 -4.828125 3.757812 -4.78125 3.96875 -4.78125 C 4.175781 -4.78125 4.328125 -4.859375 4.421875 -5.015625 L 4.46875 -5 C 4.40625 -4.769531 4.28125 -4.539062 4.09375 -4.3125 C 3.90625 -4.09375 3.679688 -3.984375 3.421875 -3.984375 C 3.273438 -3.984375 3.132812 -4.015625 3 -4.078125 C 2.875 -4.140625 2.738281 -4.195312 2.59375 -4.25 C 2.457031 -4.3125 2.316406 -4.34375 2.171875 -4.34375 C 2.035156 -4.34375 1.921875 -4.296875 1.828125 -4.203125 L 1.828125 -0.75 L 3.09375 -0.75 C 3.4375 -0.75 3.75 -0.832031 4.03125 -1 C 4.3125 -1.175781 4.507812 -1.410156 4.625 -1.703125 L 4.671875 -1.703125 L 4.34375 0.140625 C 4.28125 0.046875 4.160156 0 3.984375 0 L 0.171875 0 Z M 0.171875 -0.03125 "/></g></g></g><g fill="#ffffff" fill-opacity="1"><g transform="translate(31.767348, 19.622434)"><g/></g></g><g fill="#ffffff" fill-opacity="1"><g transform="translate(35.008922, 19.622434)"><g><path d="M 0.171875 -0.03125 C 0.367188 -0.101562 0.503906 -0.242188 0.578125 -0.453125 C 0.660156 -0.660156 0.703125 -1 0.703125 -1.46875 L 0.703125 -5.640625 C 0.703125 -6.097656 0.660156 -6.429688 0.578125 -6.640625 C 0.503906 -6.859375 0.367188 -7 0.171875 -7.0625 L 0.171875 -7.109375 L 4.0625 -7.109375 C 4.15625 -7.109375 4.253906 -7.113281 4.359375 -7.125 C 4.472656 -7.144531 4.546875 -7.171875 4.578125 -7.203125 L 3.921875 -5.859375 L 3.875 -5.875 C 3.914062 -6.21875 3.675781 -6.390625 3.15625 -6.390625 L 1.828125 -6.390625 L 1.828125 -4.53125 L 1.859375 -4.53125 C 1.953125 -4.695312 2.070312 -4.828125 2.21875 -4.921875 C 2.363281 -5.023438 2.53125 -5.078125 2.71875 -5.078125 C 2.945312 -5.078125 3.160156 -5.023438 3.359375 -4.921875 C 3.554688 -4.828125 3.757812 -4.78125 3.96875 -4.78125 C 4.175781 -4.78125 4.328125 -4.859375 4.421875 -5.015625 L 4.46875 -5 C 4.40625 -4.769531 4.28125 -4.539062 4.09375 -4.3125 C 3.90625 -4.09375 3.679688 -3.984375 3.421875 -3.984375 C 3.273438 -3.984375 3.132812 -4.015625 3 -4.078125 C 2.875 -4.140625 2.738281 -4.195312 2.59375 -4.25 C 2.457031 -4.3125 2.316406 -4.34375 2.171875 -4.34375 C 2.035156 -4.34375 1.921875 -4.296875 1.828125 -4.203125 L 1.828125 -0.75 L 3.09375 -0.75 C 3.4375 -0.75 3.75 -0.832031 4.03125 -1 C 4.3125 -1.175781 4.507812 -1.410156 4.625 -1.703125 L 4.671875 -1.703125 L 4.34375 0.140625 C 4.28125 0.046875 4.160156 0 3.984375 0 L 0.171875 0 Z M 2.125 -7.484375 L 2.6875 -9.09375 L 3.71875 -9.09375 L 3.71875 -8.96875 L 2.546875 -7.484375 Z M 2.125 -7.484375 "/></g></g></g><g fill="#ffffff" fill-opacity="1"><g transform="translate(39.83388, 19.622434)"><g><path d="M 0.171875 -0.03125 C 0.367188 -0.101562 0.503906 -0.242188 0.578125 -0.453125 C 0.660156 -0.660156 0.703125 -1 0.703125 -1.46875 L 0.703125 -5.640625 C 0.703125 -6.097656 0.660156 -6.429688 0.578125 -6.640625 C 0.503906 -6.859375 0.367188 -7 0.171875 -7.0625 L 0.171875 -7.109375 L 3.265625 -7.109375 C 3.867188 -7.109375 4.351562 -6.945312 4.71875 -6.625 C 5.09375 -6.300781 5.28125 -5.867188 5.28125 -5.328125 C 5.28125 -4.804688 5.101562 -4.375 4.75 -4.03125 C 4.40625 -3.6875 3.960938 -3.515625 3.421875 -3.515625 C 3.097656 -3.515625 2.796875 -3.582031 2.515625 -3.71875 C 2.242188 -3.851562 2.015625 -4.046875 1.828125 -4.296875 L 1.828125 -1.46875 C 1.828125 -1 1.863281 -0.660156 1.9375 -0.453125 C 2.019531 -0.242188 2.164062 -0.101562 2.375 -0.03125 L 2.375 0 L 0.171875 0 Z M 1.828125 -5.578125 C 1.878906 -5.203125 2.015625 -4.894531 2.234375 -4.65625 C 2.453125 -4.425781 2.726562 -4.3125 3.0625 -4.3125 C 3.382812 -4.3125 3.632812 -4.410156 3.8125 -4.609375 C 3.988281 -4.804688 4.078125 -5.050781 4.078125 -5.34375 C 4.078125 -5.664062 3.957031 -5.925781 3.71875 -6.125 C 3.476562 -6.320312 3.160156 -6.421875 2.765625 -6.421875 L 1.828125 -6.421875 Z M 1.828125 -5.578125 "/></g></g></g><g fill="#ffffff" fill-opacity="1"><g transform="translate(45.219882, 19.622434)"><g><path d="M 3.171875 -0.640625 C 3.410156 -0.640625 3.601562 -0.734375 3.75 -0.921875 C 3.90625 -1.109375 4.015625 -1.359375 4.078125 -1.671875 C 4.148438 -1.984375 4.1875 -2.328125 4.1875 -2.703125 C 4.1875 -3.117188 4.144531 -3.546875 4.0625 -3.984375 C 3.976562 -4.429688 3.859375 -4.835938 3.703125 -5.203125 C 3.554688 -5.578125 3.375 -5.878906 3.15625 -6.109375 C 2.9375 -6.335938 2.695312 -6.453125 2.4375 -6.453125 C 2.1875 -6.453125 1.984375 -6.359375 1.828125 -6.171875 C 1.679688 -5.984375 1.570312 -5.734375 1.5 -5.421875 C 1.425781 -5.117188 1.390625 -4.78125 1.390625 -4.40625 C 1.390625 -3.988281 1.429688 -3.554688 1.515625 -3.109375 C 1.597656 -2.671875 1.71875 -2.265625 1.875 -1.890625 C 2.03125 -1.515625 2.21875 -1.210938 2.4375 -0.984375 C 2.65625 -0.753906 2.898438 -0.640625 3.171875 -0.640625 Z M 0.296875 -3.671875 C 0.296875 -4.785156 0.515625 -5.65625 0.953125 -6.28125 C 1.398438 -6.90625 2.015625 -7.21875 2.796875 -7.21875 C 3.296875 -7.21875 3.726562 -7.0625 4.09375 -6.75 C 4.46875 -6.445312 4.757812 -6.019531 4.96875 -5.46875 C 5.175781 -4.925781 5.28125 -4.285156 5.28125 -3.546875 C 5.28125 -2.828125 5.175781 -2.191406 4.96875 -1.640625 C 4.757812 -1.085938 4.46875 -0.65625 4.09375 -0.34375 C 3.726562 -0.0390625 3.296875 0.109375 2.796875 0.109375 C 2.285156 0.109375 1.84375 -0.046875 1.46875 -0.359375 C 1.09375 -0.671875 0.800781 -1.109375 0.59375 -1.671875 C 0.394531 -2.242188 0.296875 -2.910156 0.296875 -3.671875 Z M 0.296875 -3.671875 "/></g></g></g><g fill="#ffffff" fill-opacity="1"><g transform="translate(50.805365, 19.622434)"><g><path d="M 4.609375 1.5625 C 4.347656 1.5625 4.101562 1.5 3.875 1.375 C 3.644531 1.25 3.425781 1.101562 3.21875 0.9375 C 3.019531 0.78125 2.832031 0.640625 2.65625 0.515625 C 2.476562 0.398438 2.304688 0.34375 2.140625 0.34375 C 1.960938 0.34375 1.875 0.414062 1.875 0.5625 C 1.875 0.613281 1.894531 0.65625 1.9375 0.6875 C 1.976562 0.71875 2.019531 0.734375 2.0625 0.734375 C 2 0.765625 1.929688 0.796875 1.859375 0.828125 C 1.785156 0.859375 1.707031 0.875 1.625 0.875 C 1.488281 0.875 1.363281 0.828125 1.25 0.734375 C 1.132812 0.648438 1.078125 0.539062 1.078125 0.40625 C 1.078125 0.269531 1.132812 0.144531 1.25 0.03125 C 1.375 -0.0703125 1.554688 -0.128906 1.796875 -0.140625 C 1.328125 -0.398438 0.957031 -0.835938 0.6875 -1.453125 C 0.425781 -2.066406 0.296875 -2.804688 0.296875 -3.671875 C 0.296875 -4.785156 0.515625 -5.65625 0.953125 -6.28125 C 1.398438 -6.90625 2.015625 -7.21875 2.796875 -7.21875 C 3.296875 -7.21875 3.726562 -7.0625 4.09375 -6.75 C 4.46875 -6.445312 4.757812 -6.019531 4.96875 -5.46875 C 5.175781 -4.925781 5.28125 -4.285156 5.28125 -3.546875 C 5.28125 -2.867188 5.1875 -2.265625 5 -1.734375 C 4.820312 -1.210938 4.566406 -0.789062 4.234375 -0.46875 C 3.898438 -0.144531 3.507812 0.0390625 3.0625 0.09375 C 3.320312 0.175781 3.566406 0.265625 3.796875 0.359375 C 4.035156 0.453125 4.25 0.5 4.4375 0.5 C 4.601562 0.5 4.734375 0.457031 4.828125 0.375 C 4.921875 0.289062 4.96875 0.179688 4.96875 0.046875 C 4.96875 -0.046875 4.945312 -0.128906 4.90625 -0.203125 L 4.9375 -0.21875 C 5.144531 -0.195312 5.3125 -0.101562 5.4375 0.0625 C 5.570312 0.238281 5.640625 0.425781 5.640625 0.625 C 5.640625 0.882812 5.546875 1.101562 5.359375 1.28125 C 5.179688 1.46875 4.929688 1.5625 4.609375 1.5625 Z M 1.390625 -4.40625 C 1.390625 -3.988281 1.429688 -3.554688 1.515625 -3.109375 C 1.597656 -2.671875 1.71875 -2.265625 1.875 -1.890625 C 2.03125 -1.515625 2.21875 -1.210938 2.4375 -0.984375 C 2.65625 -0.753906 2.898438 -0.640625 3.171875 -0.640625 C 3.410156 -0.640625 3.601562 -0.734375 3.75 -0.921875 C 3.90625 -1.109375 4.015625 -1.359375 4.078125 -1.671875 C 4.148438 -1.984375 4.1875 -2.328125 4.1875 -2.703125 C 4.1875 -3.117188 4.144531 -3.546875 4.0625 -3.984375 C 3.976562 -4.429688 3.859375 -4.835938 3.703125 -5.203125 C 3.554688 -5.578125 3.375 -5.878906 3.15625 -6.109375 C 2.9375 -6.335938 2.695312 -6.453125 2.4375 -6.453125 C 2.1875 -6.453125 1.984375 -6.359375 1.828125 -6.171875 C 1.679688 -5.984375 1.570312 -5.734375 1.5 -5.421875 C 1.425781 -5.117188 1.390625 -4.78125 1.390625 -4.40625 Z M 1.390625 -4.40625 "/></g></g></g><g fill="#ffffff" fill-opacity="1"><g transform="translate(56.390847, 19.622434)"><g><path d="M 2.859375 0.125 C 2.242188 0.125 1.707031 -0.03125 1.25 -0.34375 C 0.800781 -0.664062 0.507812 -1.082031 0.375 -1.59375 C 0.488281 -1.644531 0.554688 -1.734375 0.578125 -1.859375 C 0.609375 -1.984375 0.628906 -2.097656 0.640625 -2.203125 L 0.75 -5.765625 C 0.757812 -5.910156 0.753906 -6.070312 0.734375 -6.25 C 0.710938 -6.4375 0.660156 -6.601562 0.578125 -6.75 C 0.503906 -6.90625 0.382812 -7.007812 0.21875 -7.0625 L 0.21875 -7.109375 L 2.40625 -7.109375 L 2.40625 -7.0625 C 2.226562 -7.007812 2.101562 -6.90625 2.03125 -6.75 C 1.957031 -6.601562 1.910156 -6.4375 1.890625 -6.25 C 1.878906 -6.070312 1.875 -5.910156 1.875 -5.765625 L 1.765625 -2.03125 C 1.753906 -1.601562 1.847656 -1.257812 2.046875 -1 C 2.253906 -0.75 2.546875 -0.625 2.921875 -0.625 C 3.296875 -0.625 3.585938 -0.75 3.796875 -1 C 4.003906 -1.25 4.101562 -1.585938 4.09375 -2.015625 L 3.984375 -5.765625 C 3.984375 -5.910156 3.972656 -6.070312 3.953125 -6.25 C 3.929688 -6.4375 3.882812 -6.601562 3.8125 -6.75 C 3.738281 -6.90625 3.613281 -7.007812 3.4375 -7.0625 L 3.4375 -7.109375 L 5.484375 -7.109375 L 5.484375 -7.0625 C 5.304688 -7.007812 5.179688 -6.90625 5.109375 -6.75 C 5.035156 -6.601562 4.988281 -6.4375 4.96875 -6.25 C 4.957031 -6.070312 4.953125 -5.910156 4.953125 -5.765625 L 5.0625 -2.140625 C 5.070312 -2.035156 5.09375 -1.929688 5.125 -1.828125 C 5.15625 -1.722656 5.222656 -1.644531 5.328125 -1.59375 C 5.191406 -1.082031 4.898438 -0.664062 4.453125 -0.34375 C 4.003906 -0.03125 3.472656 0.125 2.859375 0.125 Z M 2.859375 0.125 "/></g></g></g><g fill="#ffffff" fill-opacity="1"><g transform="translate(62.08854, 19.622434)"><g><path d="M 0.171875 -0.03125 C 0.367188 -0.101562 0.503906 -0.242188 0.578125 -0.453125 C 0.660156 -0.660156 0.703125 -1 0.703125 -1.46875 L 0.703125 -5.640625 C 0.703125 -6.097656 0.660156 -6.429688 0.578125 -6.640625 C 0.503906 -6.859375 0.367188 -7 0.171875 -7.0625 L 0.171875 -7.109375 L 4.0625 -7.109375 C 4.15625 -7.109375 4.253906 -7.113281 4.359375 -7.125 C 4.472656 -7.144531 4.546875 -7.171875 4.578125 -7.203125 L 3.921875 -5.859375 L 3.875 -5.875 C 3.914062 -6.21875 3.675781 -6.390625 3.15625 -6.390625 L 1.828125 -6.390625 L 1.828125 -4.53125 L 1.859375 -4.53125 C 1.953125 -4.695312 2.070312 -4.828125 2.21875 -4.921875 C 2.363281 -5.023438 2.53125 -5.078125 2.71875 -5.078125 C 2.945312 -5.078125 3.160156 -5.023438 3.359375 -4.921875 C 3.554688 -4.828125 3.757812 -4.78125 3.96875 -4.78125 C 4.175781 -4.78125 4.328125 -4.859375 4.421875 -5.015625 L 4.46875 -5 C 4.40625 -4.769531 4.28125 -4.539062 4.09375 -4.3125 C 3.90625 -4.09375 3.679688 -3.984375 3.421875 -3.984375 C 3.273438 -3.984375 3.132812 -4.015625 3 -4.078125 C 2.875 -4.140625 2.738281 -4.195312 2.59375 -4.25 C 2.457031 -4.3125 2.316406 -4.34375 2.171875 -4.34375 C 2.035156 -4.34375 1.921875 -4.296875 1.828125 -4.203125 L 1.828125 -0.75 L 3.09375 -0.75 C 3.4375 -0.75 3.75 -0.832031 4.03125 -1 C 4.3125 -1.175781 4.507812 -1.410156 4.625 -1.703125 L 4.671875 -1.703125 L 4.34375 0.140625 C 4.28125 0.046875 4.160156 0 3.984375 0 L 0.171875 0 Z M 0.171875 -0.03125 "/></g></g></g><g fill="#ffffff" fill-opacity="1"><g transform="translate(66.913498, 19.622434)"><g/></g></g><g fill="#ffffff" fill-opacity="1"><g transform="translate(70.155072, 19.622434)"><g><path d="M 2.921875 0.125 C 2.109375 0.125 1.46875 -0.195312 1 -0.84375 C 0.53125 -1.488281 0.296875 -2.367188 0.296875 -3.484375 C 0.296875 -4.679688 0.53125 -5.601562 1 -6.25 C 1.46875 -6.894531 2.132812 -7.21875 3 -7.21875 C 3.363281 -7.21875 3.644531 -7.175781 3.84375 -7.09375 C 4.039062 -7.019531 4.207031 -6.984375 4.34375 -6.984375 C 4.414062 -6.984375 4.476562 -7.007812 4.53125 -7.0625 L 4.625 -5.0625 L 4.59375 -5.046875 C 4.4375 -5.503906 4.234375 -5.851562 3.984375 -6.09375 C 3.734375 -6.332031 3.441406 -6.453125 3.109375 -6.453125 C 2.609375 -6.453125 2.21875 -6.191406 1.9375 -5.671875 C 1.65625 -5.148438 1.515625 -4.421875 1.515625 -3.484375 C 1.515625 -2.660156 1.664062 -1.988281 1.96875 -1.46875 C 2.28125 -0.957031 2.679688 -0.703125 3.171875 -0.703125 C 3.503906 -0.703125 3.800781 -0.8125 4.0625 -1.03125 C 4.320312 -1.257812 4.503906 -1.5625 4.609375 -1.9375 L 4.6875 -1.9375 L 4.796875 -0.765625 C 4.335938 -0.171875 3.710938 0.125 2.921875 0.125 Z M 2.921875 0.125 "/></g></g></g><g fill="#ffffff" fill-opacity="1"><g transform="translate(75.129642, 19.622434)"><g><path d="M -0.25 -0.03125 C -0.0820312 -0.09375 0.046875 -0.207031 0.140625 -0.375 C 0.242188 -0.550781 0.351562 -0.847656 0.46875 -1.265625 L 1.578125 -5.578125 C 1.703125 -6.046875 1.757812 -6.394531 1.75 -6.625 C 1.738281 -6.863281 1.660156 -7.007812 1.515625 -7.0625 L 1.515625 -7.109375 L 3.34375 -7.109375 L 4.90625 -1.265625 C 5.007812 -0.867188 5.113281 -0.582031 5.21875 -0.40625 C 5.320312 -0.226562 5.457031 -0.101562 5.625 -0.03125 L 5.625 0 L 3.46875 0 L 3.46875 -0.03125 C 3.644531 -0.101562 3.753906 -0.25 3.796875 -0.46875 C 3.835938 -0.6875 3.796875 -1.019531 3.671875 -1.46875 L 3.609375 -1.75 L 1.484375 -1.75 L 1.421875 -1.46875 C 1.316406 -1.03125 1.28125 -0.703125 1.3125 -0.484375 C 1.34375 -0.265625 1.453125 -0.113281 1.640625 -0.03125 L 1.640625 0 L -0.25 0 Z M 1.671875 -2.5 L 3.421875 -2.5 L 2.5 -5.875 Z M 1.671875 -2.5 "/></g></g></g><g fill="#ffffff" fill-opacity="1"><g transform="translate(80.503177, 19.622434)"><g><path d="M 0.171875 -0.03125 C 0.367188 -0.101562 0.503906 -0.242188 0.578125 -0.453125 C 0.660156 -0.660156 0.703125 -1 0.703125 -1.46875 L 0.703125 -5.640625 C 0.703125 -6.097656 0.660156 -6.429688 0.578125 -6.640625 C 0.503906 -6.859375 0.367188 -7 0.171875 -7.0625 L 0.171875 -7.109375 L 4.140625 -7.109375 C 4.234375 -7.109375 4.332031 -7.113281 4.4375 -7.125 C 4.539062 -7.144531 4.613281 -7.171875 4.65625 -7.203125 L 3.984375 -5.859375 L 3.953125 -5.875 C 3.992188 -6.21875 3.753906 -6.390625 3.234375 -6.390625 L 1.828125 -6.390625 L 1.828125 -4.40625 L 1.859375 -4.40625 C 1.953125 -4.570312 2.070312 -4.707031 2.21875 -4.8125 C 2.363281 -4.914062 2.53125 -4.96875 2.71875 -4.96875 C 2.945312 -4.96875 3.160156 -4.914062 3.359375 -4.8125 C 3.554688 -4.707031 3.757812 -4.65625 3.96875 -4.65625 C 4.175781 -4.65625 4.328125 -4.738281 4.421875 -4.90625 L 4.46875 -4.890625 C 4.40625 -4.648438 4.28125 -4.421875 4.09375 -4.203125 C 3.90625 -3.984375 3.679688 -3.875 3.421875 -3.875 C 3.273438 -3.875 3.132812 -3.898438 3 -3.953125 C 2.875 -4.015625 2.738281 -4.078125 2.59375 -4.140625 C 2.457031 -4.203125 2.316406 -4.234375 2.171875 -4.234375 C 2.035156 -4.234375 1.921875 -4.1875 1.828125 -4.09375 L 1.828125 -1.46875 C 1.828125 -1 1.863281 -0.660156 1.9375 -0.453125 C 2.019531 -0.242188 2.164062 -0.101562 2.375 -0.03125 L 2.375 0 L 0.171875 0 Z M 0.171875 -0.03125 "/></g></g></g><g fill="#ffffff" fill-opacity="1"><g transform="translate(85.228397, 19.622434)"><g><path d="M 0.171875 -0.03125 C 0.367188 -0.101562 0.503906 -0.242188 0.578125 -0.453125 C 0.660156 -0.660156 0.703125 -1 0.703125 -1.46875 L 0.703125 -5.640625 C 0.703125 -6.097656 0.660156 -6.429688 0.578125 -6.640625 C 0.503906 -6.859375 0.367188 -7 0.171875 -7.0625 L 0.171875 -7.109375 L 4.0625 -7.109375 C 4.15625 -7.109375 4.253906 -7.113281 4.359375 -7.125 C 4.472656 -7.144531 4.546875 -7.171875 4.578125 -7.203125 L 3.921875 -5.859375 L 3.875 -5.875 C 3.914062 -6.21875 3.675781 -6.390625 3.15625 -6.390625 L 1.828125 -6.390625 L 1.828125 -4.53125 L 1.859375 -4.53125 C 1.953125 -4.695312 2.070312 -4.828125 2.21875 -4.921875 C 2.363281 -5.023438 2.53125 -5.078125 2.71875 -5.078125 C 2.945312 -5.078125 3.160156 -5.023438 3.359375 -4.921875 C 3.554688 -4.828125 3.757812 -4.78125 3.96875 -4.78125 C 4.175781 -4.78125 4.328125 -4.859375 4.421875 -5.015625 L 4.46875 -5 C 4.40625 -4.769531 4.28125 -4.539062 4.09375 -4.3125 C 3.90625 -4.09375 3.679688 -3.984375 3.421875 -3.984375 C 3.273438 -3.984375 3.132812 -4.015625 3 -4.078125 C 2.875 -4.140625 2.738281 -4.195312 2.59375 -4.25 C 2.457031 -4.3125 2.316406 -4.34375 2.171875 -4.34375 C 2.035156 -4.34375 1.921875 -4.296875 1.828125 -4.203125 L 1.828125 -0.75 L 3.09375 -0.75 C 3.4375 -0.75 3.75 -0.832031 4.03125 -1 C 4.3125 -1.175781 4.507812 -1.410156 4.625 -1.703125 L 4.671875 -1.703125 L 4.34375 0.140625 C 4.28125 0.046875 4.160156 0 3.984375 0 L 0.171875 0 Z M 2.125 -7.484375 L 2.6875 -9.09375 L 3.71875 -9.09375 L 3.71875 -8.96875 L 2.546875 -7.484375 Z M 2.125 -7.484375 "/></g></g></g></svg>